 <svg width="40px" height="40px" viewBox="0 0 1718 1690">
            <g transform="translate(0.000000,1690.000000) scale(0.100000,-0.100000)" fill="currentColor" stroke="none">
                <path
                    d="M2478 16244 c-870 -105 -1593 -749 -1802 -1605 -60 -249 -56 225 -56
-6174 0 -6455 -5 -5933 64 -6207 97 -383 286 -710 577 -994 235 -228 494 -386
800 -488 671 -224 1387 -106 1959 322 100 74 286 257 370 362 189 238 323 507
396 798 69 274 64 -248 64 6207 0 5230 -2 5856 -16 5957 -76 555 -362 1052
-804 1395 -232 180 -548 328 -838 393 -221 49 -485 61 -714 34z"
                />
                <path
                    d="M14136 16248 c-531 -46 -1051 -314 -1402 -722 -277 -321 -451 -714
-504 -1136 -13 -109 -13 -541 1 -650 46 -372 189 -726 417 -1030 70 -95 254
-283 352 -363 238 -192 554 -348 845 -415 241 -56 542 -70 775 -37 665 95
1231 483 1562 1070 118 210 203 460 245 721 25 153 25 613 0 763 -77 470 -275
860 -601 1187 -448 448 -1057 668 -1690 612z"
                />
                <path
                    d="M8430 14064 c-456 -28 -885 -192 -1231 -472 -109 -88 -303 -293 -381
-403 -245 -344 -371 -704 -399 -1134 -16 -247 -7 -6315 9 -6420 78 -499 277
-902 611 -1235 767 -765 1973 -828 2826 -150 114 91 262 244 353 365 207 276
336 569 405 920 l21 110 4 3215 c2 2318 0 3243 -8 3315 -64 573 -367 1110
-821 1455 -294 225 -671 378 -1029 419 -104 12 -285 19 -360 15z"
                />
                <path
                    d="M14098 10450 c-508 -64 -958 -289 -1303 -651 -338 -355 -538 -810
-575 -1309 -8 -101 -10 -1027 -8 -3025 4 -3181 -1 -2924 65 -3195 101 -416
339 -804 668 -1087 309 -267 679 -436 1090 -499 150 -23 432 -23 589 0 698
101 1301 536 1607 1161 96 196 155 379 196 610 17 95 18 264 18 3105 l0 3005
-23 129 c-41 223 -98 397 -194 590 -305 613 -876 1036 -1558 1152 -109 18
-468 27 -572 14z"
                />
            </g>
        </svg>
