<?xml version="1.0" encoding="UTF-8"?>
<svg id="Capa_1" data-name="Capa 1" xmlns="http://www.w3.org/2000/svg" xmlns:xlink="http://www.w3.org/1999/xlink" viewBox="0 0 264.87 203.31">
  <defs>
    <style>
      .cls-1 {
        fill: url(#Degradado_sin_nombre_130);
      }

      .cls-2 {
        fill: url(#Degradado_sin_nombre_133);
      }

      .cls-3 {
        fill: url(#Degradado_sin_nombre_127);
      }

      .cls-4 {
        fill: url(#Degradado_sin_nombre_124);
      }
    </style>
    <linearGradient id="Degradado_sin_nombre_133" data-name="Degradado sin nombre 133" x1="219.71" y1="180.73" x2="264.87" y2="180.73" gradientUnits="userSpaceOnUse">
      <stop offset="0" stop-color="#44464f"/>
      <stop offset="1" stop-color="#191a1f"/>
    </linearGradient>
    <linearGradient id="Degradado_sin_nombre_124" data-name="Degradado sin nombre 124" x1="0" y1="38.76" x2="40.8" y2="38.76" gradientUnits="userSpaceOnUse">
      <stop offset="0" stop-color="#44464f"/>
      <stop offset="1" stop-color="#191a1f"/>
    </linearGradient>
    <linearGradient id="Degradado_sin_nombre_127" data-name="Degradado sin nombre 127" x1="0" y1="101.65" x2="132.44" y2="101.65" gradientUnits="userSpaceOnUse">
      <stop offset="0" stop-color="#44464f"/>
      <stop offset="1" stop-color="#191a1f"/>
    </linearGradient>
    <linearGradient id="Degradado_sin_nombre_130" data-name="Degradado sin nombre 130" x1="109.86" y1="101.65" x2="264.87" y2="101.65" gradientUnits="userSpaceOnUse">
      <stop offset="0" stop-color="#44464f"/>
      <stop offset="1" stop-color="#191a1f"/>
    </linearGradient>
  </defs>
  <circle class="cls-2" cx="242.29" cy="180.73" r="22.58"/>
  <path class="cls-4" d="M40.8,9.22c-6.64,3.58-12.7,8.1-17.99,13.37-5.36,5.36-9.94,11.48-13.57,18.19C3.35,51.72,0,64.23,0,77.52V22.59C0,10.11,10.11,0,22.59,0c7.48,0,14.1,3.63,18.21,9.22Z"/>
  <path class="cls-3" d="M132.44,22.82c-13.96,14.02-22.59,33.35-22.59,54.69,0-17.87-14.47-32.36-32.34-32.36s-32.34,14.49-32.34,32.36v125.79H0v-125.79c0-13.29,3.35-25.8,9.24-36.73,3.63-6.71,8.21-12.84,13.57-18.19,5.3-5.27,11.36-9.78,17.99-13.37C51.73,3.35,64.23,0,77.52,0c21.47,0,40.89,8.72,54.93,22.82Z"/>
  <path class="cls-1" d="M264.87,77.52v40.32c0,5.45-1.93,10.45-5.16,14.36-4.14,5.02-10.41,8.21-17.42,8.21-2.73,0-5.34-.48-7.77-1.37-3.8-1.39-7.12-3.79-9.66-6.84-3.22-3.91-5.16-8.91-5.16-14.36v-40.32c0-17.87-14.49-32.36-32.34-32.36s-32.36,14.49-32.36,32.36v125.79h-45.16v-125.79c0-21.34,8.63-40.67,22.59-54.69C146.48,8.72,165.9,0,187.37,0c42.81,0,77.5,34.71,77.5,77.52Z"/>
</svg>