<?xml version="1.0" encoding="UTF-8"?>
<svg id="Capa_1" data-name="Capa 1" xmlns="http://www.w3.org/2000/svg" viewBox="0 0 577.1 156.33">
  <defs>
    <style>
      .cls-1 {
        fill: #fff;
      }
    </style>
  </defs>
  <path class="cls-1" d="M146.09,4.05v149.29h-29.22V56.52l-42.1,69.26-3.43.12L29.43,56.88v96.46H0V4.05h30.28l42.81,70.49L115.68,4.05h30.41Z"/>
  <path class="cls-1" d="M186.18,33.91c-4.55,0-8.5-1.67-11.84-5.01-3.34-3.34-5.01-7.28-5.01-11.84s1.67-8.53,5.01-11.94c3.34-3.41,7.28-5.12,11.84-5.12s8.71,1.71,12.05,5.12c3.34,3.41,5.01,7.39,5.01,11.94s-1.67,8.5-5.01,11.84-7.36,5.01-12.05,5.01ZM172.53,153.34V46.71h27.51v106.63h-27.51Z"/>
  <path class="cls-1" d="M275.97,156.33c-16.07,0-29.47-5.4-40.2-16.21-10.74-10.8-16.1-24.17-16.1-40.1s5.36-29.29,16.1-40.1c10.73-10.8,24.13-16.21,40.2-16.21,10.38,0,19.83,2.49,28.36,7.46,8.53,4.98,15,11.66,19.41,20.05l-23.67,13.86c-2.13-4.4-5.37-7.89-9.7-10.45-4.34-2.56-9.21-3.84-14.61-3.84-8.25,0-15.07,2.74-20.47,8.21-5.4,5.47-8.1,12.48-8.1,21.01s2.7,15.32,8.1,20.79c5.4,5.47,12.23,8.21,20.47,8.21,5.54,0,10.48-1.24,14.82-3.73,4.33-2.49,7.57-5.93,9.7-10.34l23.89,13.65c-4.69,8.39-11.3,15.11-19.83,20.15-8.53,5.05-17.99,7.57-28.36,7.57Z"/>
  <path class="cls-1" d="M352.32,33.91c-4.55,0-8.5-1.67-11.84-5.01-3.34-3.34-5.01-7.28-5.01-11.84s1.67-8.53,5.01-11.94c3.34-3.41,7.28-5.12,11.84-5.12s8.71,1.71,12.05,5.12c3.34,3.41,5.01,7.39,5.01,11.94s-1.67,8.5-5.01,11.84-7.36,5.01-12.05,5.01ZM338.67,153.34V46.71h27.51v106.63h-27.51Z"/>
  <path class="cls-1" d="M452.34,73.15h-24.1v44.36c0,3.7.92,6.4,2.77,8.1,1.85,1.71,4.55,2.67,8.1,2.88,3.55.21,7.96.18,13.22-.11v24.95c-18.91,2.13-32.24.35-39.99-5.33-7.75-5.68-11.62-15.85-11.62-30.5v-44.36h-18.56v-26.45h18.56v-21.54l27.51-8.32v29.86h24.1v26.45Z"/>
  <path class="cls-1" d="M549.59,46.71h27.51v106.63h-27.51v-12.58c-8.25,10.38-19.83,15.57-34.76,15.57s-26.41-5.44-36.58-16.32c-10.17-10.88-15.25-24.21-15.25-39.99s5.08-29.11,15.25-39.99c10.16-10.88,22.36-16.32,36.58-16.32,14.93,0,26.52,5.19,34.76,15.57v-12.58ZM498.83,121.67c5.55,5.62,12.58,8.42,21.11,8.42s15.6-2.81,21.22-8.42c5.62-5.61,8.42-12.83,8.42-21.65s-2.81-16.03-8.42-21.65c-5.62-5.61-12.69-8.42-21.22-8.42s-15.57,2.81-21.11,8.42c-5.54,5.62-8.32,12.83-8.32,21.65s2.77,16.03,8.32,21.65Z"/>
</svg>