<?xml version="1.0" encoding="UTF-8"?>
<svg id="Capa_1" data-name="Capa 1" xmlns="http://www.w3.org/2000/svg" xmlns:xlink="http://www.w3.org/1999/xlink" viewBox="0 0 765.74 203.31">
  <defs>
    <style>
      .cls-1 {
        fill: url(#Degradado_sin_nombre_12-2);
      }

      .cls-2 {
        fill: url(#Degradado_sin_nombre_12-3);
      }

      .cls-3 {
        fill: url(#Degradado_sin_nombre_12-4);
      }

      .cls-4 {
        fill: url(#Degradado_sin_nombre_213);
      }

      .cls-5 {
        fill: url(#Degradado_sin_nombre_12);
      }

      .cls-6 {
        fill: url(#Degradado_sin_nombre_213-3);
      }

      .cls-7 {
        fill: url(#Degradado_sin_nombre_213-6);
      }

      .cls-8 {
        fill: url(#Degradado_sin_nombre_213-4);
      }

      .cls-9 {
        fill: url(#Degradado_sin_nombre_213-2);
      }

      .cls-10 {
        fill: url(#Degradado_sin_nombre_213-5);
      }
    </style>
    <linearGradient id="Degradado_sin_nombre_213" data-name="Degradado sin nombre 213" x1="340.84" y1="118.14" x2="448.4" y2="118.14" gradientUnits="userSpaceOnUse">
      <stop offset="0" stop-color="#fff"/>
      <stop offset="1" stop-color="#f4f4f4"/>
    </linearGradient>
    <linearGradient id="Degradado_sin_nombre_213-2" data-name="Degradado sin nombre 213" x1="465.51" y1="116.65" x2="490.48" y2="116.65" xlink:href="#Degradado_sin_nombre_213"/>
    <linearGradient id="Degradado_sin_nombre_213-3" data-name="Degradado sin nombre 213" x1="502.57" y1="133.84" x2="579.51" y2="133.84" xlink:href="#Degradado_sin_nombre_213"/>
    <linearGradient id="Degradado_sin_nombre_213-4" data-name="Degradado sin nombre 213" x1="587.83" y1="116.65" x2="612.8" y2="116.65" xlink:href="#Degradado_sin_nombre_213"/>
    <linearGradient id="Degradado_sin_nombre_213-5" data-name="Degradado sin nombre 213" x1="622.22" y1="123.17" x2="673.88" y2="123.17" xlink:href="#Degradado_sin_nombre_213"/>
    <linearGradient id="Degradado_sin_nombre_213-6" data-name="Degradado sin nombre 213" x1="681.73" y1="133.84" x2="765.74" y2="133.84" xlink:href="#Degradado_sin_nombre_213"/>
    <linearGradient id="Degradado_sin_nombre_12" data-name="Degradado sin nombre 12" x1="219.73" y1="180.73" x2="264.89" y2="180.73" gradientUnits="userSpaceOnUse">
      <stop offset="0" stop-color="#fff"/>
      <stop offset="1" stop-color="#ccc"/>
    </linearGradient>
    <linearGradient id="Degradado_sin_nombre_12-2" data-name="Degradado sin nombre 12" x1=".01" y1="38.76" x2="40.81" y2="38.76" xlink:href="#Degradado_sin_nombre_12"/>
    <linearGradient id="Degradado_sin_nombre_12-3" data-name="Degradado sin nombre 12" x1=".01" y1="101.65" x2="132.46" y2="101.65" xlink:href="#Degradado_sin_nombre_12"/>
    <linearGradient id="Degradado_sin_nombre_12-4" data-name="Degradado sin nombre 12" x1="109.87" y1="101.65" x2="264.89" y2="101.65" xlink:href="#Degradado_sin_nombre_12"/>
  </defs>
  <g>
    <path class="cls-4" d="M448.4,63.18v109.92h-21.51v-71.29l-31,50.99-2.53.09-30.85-50.81v71.02h-21.67V63.18h22.3l31.52,51.9,31.36-51.9h22.39Z"/>
    <path class="cls-9" d="M477.92,85.17c-3.35,0-6.26-1.23-8.71-3.69-2.46-2.46-3.69-5.36-3.69-8.71s1.23-6.28,3.69-8.79c2.46-2.51,5.36-3.77,8.71-3.77s6.41,1.26,8.87,3.77c2.46,2.51,3.69,5.44,3.69,8.79s-1.23,6.26-3.69,8.71-5.42,3.69-8.87,3.69ZM467.87,173.1v-78.51h20.26v78.51h-20.26Z"/>
    <path class="cls-6" d="M544.02,175.3c-11.83,0-21.7-3.98-29.6-11.93-7.91-7.95-11.86-17.8-11.86-29.52s3.95-21.56,11.86-29.52c7.9-7.95,17.77-11.93,29.6-11.93,7.64,0,14.6,1.83,20.88,5.5,6.28,3.67,11.04,8.58,14.29,14.76l-17.43,10.21c-1.57-3.24-3.95-5.81-7.14-7.69-3.19-1.88-6.78-2.83-10.76-2.83-6.07,0-11.1,2.02-15.07,6.05-3.98,4.03-5.97,9.19-5.97,15.47s1.99,11.28,5.97,15.31c3.98,4.03,9,6.05,15.07,6.05,4.08,0,7.72-.92,10.91-2.75,3.19-1.83,5.57-4.37,7.14-7.62l17.59,10.05c-3.45,6.18-8.32,11.12-14.6,14.84-6.28,3.72-13.24,5.57-20.88,5.57Z"/>
    <path class="cls-8" d="M600.23,85.17c-3.35,0-6.26-1.23-8.71-3.69-2.46-2.46-3.69-5.36-3.69-8.71s1.23-6.28,3.69-8.79c2.46-2.51,5.36-3.77,8.71-3.77s6.41,1.26,8.87,3.77c2.46,2.51,3.69,5.44,3.69,8.79s-1.23,6.26-3.69,8.71c-2.46,2.46-5.42,3.69-8.87,3.69ZM590.19,173.1v-78.51h20.26v78.51h-20.26Z"/>
    <path class="cls-10" d="M673.88,114.06h-17.74v32.66c0,2.72.68,4.71,2.04,5.97,1.36,1.26,3.35,1.96,5.97,2.12,2.62.16,5.86.13,9.74-.08v18.37c-13.92,1.57-23.74.26-29.44-3.93-5.71-4.19-8.56-11.67-8.56-22.45v-32.66h-13.66v-19.47h13.66v-15.86l20.26-6.12v21.98h17.74v19.47Z"/>
    <path class="cls-7" d="M745.48,94.59h20.26v78.51h-20.26v-9.26c-6.07,7.64-14.6,11.46-25.59,11.46s-19.45-4-26.93-12.01c-7.49-8.01-11.23-17.82-11.23-29.44s3.74-21.43,11.23-29.44c7.48-8.01,16.46-12.01,26.93-12.01,10.99,0,19.52,3.82,25.59,11.46v-9.26ZM708.11,149.78c4.08,4.14,9.26,6.2,15.55,6.2s11.49-2.07,15.62-6.2c4.13-4.13,6.2-9.45,6.2-15.94s-2.07-11.8-6.2-15.94c-4.14-4.13-9.34-6.2-15.62-6.2s-11.46,2.07-15.55,6.2c-4.08,4.14-6.12,9.45-6.12,15.94s2.04,11.8,6.12,15.94Z"/>
  </g>
  <g>
    <circle class="cls-5" cx="242.31" cy="180.73" r="22.58"/>
    <path class="cls-1" d="M40.81,9.22c-6.64,3.58-12.7,8.1-17.99,13.37-5.36,5.36-9.94,11.48-13.57,18.19C3.36,51.72.01,64.23.01,77.52V22.59C.01,10.11,10.12,0,22.6,0c7.48,0,14.1,3.63,18.21,9.22Z"/>
    <path class="cls-2" d="M132.46,22.82c-13.96,14.02-22.59,33.35-22.59,54.69,0-17.87-14.47-32.36-32.34-32.36s-32.34,14.49-32.34,32.36v125.79H.01v-125.79C.01,64.23,3.36,51.72,9.25,40.78c3.63-6.71,8.21-12.84,13.57-18.19,5.3-5.27,11.36-9.78,17.99-13.37C51.75,3.35,64.24,0,77.53,0c21.47,0,40.89,8.72,54.93,22.82Z"/>
    <path class="cls-3" d="M264.89,77.52v40.32c0,5.45-1.93,10.45-5.16,14.36-4.14,5.02-10.41,8.21-17.42,8.21-2.73,0-5.34-.48-7.77-1.37-3.8-1.39-7.12-3.79-9.66-6.84-3.22-3.91-5.16-8.91-5.16-14.36v-40.32c0-17.87-14.49-32.36-32.34-32.36s-32.36,14.49-32.36,32.36v125.79h-45.16v-125.79c0-21.34,8.63-40.67,22.59-54.69C146.49,8.72,165.92,0,187.39,0c42.81,0,77.5,34.71,77.5,77.52Z"/>
  </g>
</svg>